HIERARCHY
ROOT Hips
{
	OFFSET -0.001795 -0.223333 0.028219
	CHANNELS 6 Xposition Yposition Zposition Zrotation Yrotation Xrotation 
	JOINT LeftUpLeg
	{
		OFFSET 0.069520 -0.091406 -0.006815
		CHANNELS 3 Zrotation Yrotation Xrotation
		JOINT LeftLeg
		{
			OFFSET 0.034277 -0.375199 -0.004496
			CHANNELS 3 Zrotation Yrotation Xrotation
			JOINT LeftFoot
			{
				OFFSET -0.013596 -0.397961 -0.043693
				CHANNELS 3 Zrotation Yrotation Xrotation
				JOINT LeftToe
				{
					OFFSET 0.026358 -0.055791 0.119288
					CHANNELS 3 Zrotation Yrotation Xrotation
					End Site
					{
						OFFSET 0.000000 0.000000 0.000000
					}
				}
			}
		}
	}
	JOINT RightUpLeg
	{
		OFFSET -0.067670 -0.090522 -0.004320
		CHANNELS 3 Zrotation Yrotation Xrotation
		JOINT RightLeg
		{
			OFFSET -0.038290 -0.382569 -0.008850
			CHANNELS 3 Zrotation Yrotation Xrotation
			JOINT RightFoot
			{
				OFFSET 0.015774 -0.398415 -0.042312
				CHANNELS 3 Zrotation Yrotation Xrotation
				JOINT RightToe
				{
					OFFSET -0.025372 -0.048144 0.123348
					CHANNELS 3 Zrotation Yrotation Xrotation
					End Site
					{
						OFFSET 0.000000 0.000000 0.000000
					}
				}
			}
		}
	}
	JOINT Spine
	{
		OFFSET -0.002533 0.108963 -0.026696
		CHANNELS 3 Zrotation Yrotation Xrotation
		JOINT Spine1
		{
			OFFSET 0.005487 0.135180 0.001092
			CHANNELS 3 Zrotation Yrotation Xrotation
			JOINT Spine2
			{
				OFFSET 0.001457 0.052922 0.025425
				CHANNELS 3 Zrotation Yrotation Xrotation
				JOINT Neck
				{
					OFFSET -0.002778 0.213870 -0.042857
					CHANNELS 3 Zrotation Yrotation Xrotation
					JOINT Head
					{
						OFFSET 0.005152 0.064970 0.051349
						CHANNELS 3 Zrotation Yrotation Xrotation
						End Site
						{
							OFFSET 0.000000 0.000000 0.000000
						}
					}
				}
				JOINT LeftShoulder
				{
					OFFSET 0.078845 0.121749 -0.034090
					CHANNELS 3 Zrotation Yrotation Xrotation
					JOINT LeftArm
					{
						OFFSET 0.090977 0.030469 -0.008868
						CHANNELS 3 Zrotation Yrotation Xrotation
						JOINT LeftForeArm
						{
							OFFSET 0.259612 -0.012772 -0.027456
							CHANNELS 3 Zrotation Yrotation Xrotation
							JOINT LeftHand
							{
								OFFSET 0.249234 0.008986 -0.001171
								CHANNELS 3 Zrotation Yrotation Xrotation
								End Site
								{
									OFFSET 0.000000 0.000000 0.000000
								}
							}
						}
					}
				}
				JOINT RightShoulder
				{
					OFFSET -0.081759 0.118833 -0.038615
					CHANNELS 3 Zrotation Yrotation Xrotation
					JOINT RightArm
					{
						OFFSET -0.096012 0.032551 -0.009143
						CHANNELS 3 Zrotation Yrotation Xrotation
						JOINT RightForeArm
						{
							OFFSET -0.253742 -0.013329 -0.021401
							CHANNELS 3 Zrotation Yrotation Xrotation
							JOINT RightHand
							{
								OFFSET -0.255298 0.007772 -0.005559
								CHANNELS 3 Zrotation Yrotation Xrotation
								End Site
								{
									OFFSET 0.000000 0.000000 0.000000
								}
							}
						}
					}
				}
			}
		}
	}
}
MOTION
Frames: 6
Frame Time: 0.050000
0.000000 0.948881 0.000000 0.048046 1.564202 3.533191 -2.869184 0.457887 3.382041 1.854487 0.265878 -9.372348 -1.998149 -1.341082 5.487345 0.000000 0.000000 0.000000 2.356024 -0.381347 2.523162 -1.098798 -0.179855 -6.001804 4.355549 7.658712 5.155883 0.000000 0.000000 0.000000 5.710834 0.084636 -2.324852 -0.231503 -0.055916 5.203296 -2.328541 2.129684 3.798362 4.534369 -1.112956 -17.021448 0.000000 0.000000 0.000000 -28.744619 -10.932857 2.765480 -21.429552 5.600140 -2.895997 16.969733 -8.982654 -0.996779 0.000000 0.000000 0.000000 22.595194 9.664452 4.599325 23.882175 -3.200912 -2.927828 -10.489850 20.857169 -0.973070 0.000000 0.000000 0.000000 
-0.001816 0.947610 0.001937 0.000469 1.918033 3.844847 -1.986618 0.429750 3.546229 1.173365 0.321739 -10.385109 -2.157080 -1.090952 6.576152 0.000000 0.000000 0.000000 2.420129 -0.291605 1.760149 -0.783771 -0.173535 -5.504246 3.946975 7.653935 3.725940 0.000000 0.000000 0.000000 6.579976 0.028733 -1.877300 -0.493926 0.073183 5.298787 -3.766881 2.953952 3.550365 5.754387 -1.364120 -19.300407 0.000000 0.000000 0.000000 -27.279208 -12.159696 3.048929 -23.699558 6.345318 -3.245944 18.439749 -6.041268 -0.773678 0.000000 0.000000 0.000000 24.765246 6.936878 3.502475 23.410482 -3.285026 -2.998679 -9.777702 21.748731 -0.862966 0.000000 0.000000 0.000000 
-0.003461 0.946545 0.003613 0.034693 2.188605 4.269137 -2.094808 0.392775 3.117652 1.899373 0.268110 -9.469512 -1.975893 -1.375694 5.249245 0.000000 0.000000 0.000000 2.405949 -0.294419 1.769709 -0.809773 -0.221758 -6.525566 4.184141 8.920176 2.727035 0.000000 0.000000 0.000000 7.448870 0.044369 -2.232335 -1.345964 0.560900 3.463900 -3.505295 2.201964 5.503968 5.171552 -1.181564 -19.064960 0.000000 0.000000 0.000000 -26.317842 -11.837567 3.266569 -24.721333 7.733695 -3.791877 17.677409 -5.025604 -0.592242 0.000000 0.000000 0.000000 24.082303 8.219555 4.084589 24.619178 -5.528156 -3.516391 -9.858206 24.025726 -1.016055 0.000000 0.000000 0.000000 
-0.005374 0.946480 0.005059 0.108363 2.306538 4.287151 -1.722048 0.433162 3.703421 1.474303 0.311934 -10.291613 -2.128679 -1.467669 5.638973 0.000000 0.000000 0.000000 2.231357 -0.329330 2.121575 -0.205363 -0.253409 -6.543304 4.699167 10.333910 2.536038 0.000000 0.000000 0.000000 7.322738 0.010237 -1.908735 -1.427664 0.597809 3.621008 -3.484178 2.451808 5.039690 5.171744 -0.997283 -20.114566 0.000000 0.000000 0.000000 -27.842937 -12.357394 3.402954 -23.819227 9.084483 -3.788396 19.131186 -2.212699 -0.287012 0.000000 0.000000 0.000000 25.449421 7.825864 4.002143 22.894876 -7.110161 -3.472886 -8.829265 24.648668 -0.854825 0.000000 0.000000 0.000000 
-0.007111 0.946621 0.006342 0.212921 2.377950 4.453013 -1.613445 0.419089 3.621595 1.119507 0.299975 -9.872790 -2.074500 -1.620435 5.119259 0.000000 0.000000 0.000000 2.285309 -0.336907 2.153936 -0.597085 -0.246000 -6.805057 4.926336 11.151762 2.199828 0.000000 0.000000 0.000000 7.408359 0.010667 -1.973510 -1.521647 0.639044 3.847422 -3.659405 2.195616 4.105970 5.627461 -1.397618 -19.068468 0.000000 0.000000 0.000000 -27.450171 -12.362772 3.445218 -23.173859 10.118658 -3.805497 18.089783 -0.697533 -0.076155 0.000000 0.000000 0.000000 24.949029 7.343176 3.573273 23.184937 -8.251592 -3.620121 -8.094977 26.846199 -0.787229 0.000000 0.000000 0.000000 
-0.008476 0.946246 0.007885 0.296109 2.507764 4.323436 -1.851219 0.470728 3.988961 1.573293 0.293473 -9.919051 -2.441006 -2.395578 4.968693 0.000000 0.000000 0.000000 2.009372 -0.368001 2.533957 -0.129000 -0.265557 -6.726144 4.926726 11.359452 1.933097 0.000000 0.000000 0.000000 7.371863 -0.007299 -1.775036 -1.464222 0.599080 4.239097 -3.709396 1.721708 3.857404 5.141218 -1.086327 -19.636081 0.000000 0.000000 0.000000 -27.343524 -12.529595 3.714895 -22.948600 9.666347 -3.718187 18.187606 1.371086 0.186168 0.000000 0.000000 0.000000 24.410092 7.368847 3.409575 23.298943 -8.544725 -3.636652 -8.180334 28.534229 -0.876156 0.000000 0.000000 0.000000 
